<?xml version="1.0" encoding="utf-8"?>
<!-- Generator: Adobe Illustrator 23.0.1, SVG Export Plug-In . SVG Version: 6.00 Build 0)  -->
<svg version="1.1" id="Grupo_18" xmlns="http://www.w3.org/2000/svg" xmlns:xlink="http://www.w3.org/1999/xlink" x="0px" y="0px"
	 viewBox="0 0 90.1 41" style="enable-background:new 0 0 90.1 41;" xml:space="preserve">
<style type="text/css">
	.st0{fill:#FFCC03;}
	.st1{fill:#EF7D04;}
	.st2{fill-rule:evenodd;clip-rule:evenodd;fill:#EF7D04;}
</style>
<g>
	<path class="st0" d="M40,13c-1-1.8-2.5-3.3-4.4-4.3c-2-1.1-4.2-1.6-6.4-1.6h-4.6c0-1.8-0.6-3.5-1.6-5c-1.4-1.5-3.4-2.3-5.4-2.1
		c-1.1,0-2.1,0.4-3,1c-1.1,0.9-2.1,1.9-2.8,3.1L1,20c-0.3,0.6-0.5,1-0.6,1.2C0.1,21.8,0,22.4,0,23c0,1.1,0.4,2.2,1.1,3
		c0.8,0.9,1.8,1.4,2.9,1.6c0.4,0,0.8,0.1,1.2,0.1h9V29c0,0.5,0.1,1,0.2,1.5v5c0,1.4,0.5,2.8,1.5,3.9c1,1.1,2.3,1.7,3.7,1.6
		c1.3,0,2.6-0.5,3.6-1.5s1.6-2.5,1.5-3.9V31h4c0.7,0,1.3,0,2-0.1c2.9-0.3,5.7-1.6,7.8-3.8c1.9-2.2,3-5,3-7.9
		C41.6,17,41.1,14.9,40,13"/>
	<path class="st1" d="M47.4,15.6c2.5,0,5.1,1,5.1,2.6c0,0.8-0.5,1.5-1.3,1.5h-0.1c-1.3,0-1.4-1.6-3.5-1.6c-1.2,0-1.9,0.3-1.9,1.1
		c0,0.8,0.8,1,1.8,1.2l1.4,0.3c1.9,0.5,4.2,1.3,4.2,3.7c0,2.8-2.6,4.1-5.2,4.1c-3,0-5.5-1.4-5.5-3.1c-0.1-0.7,0.5-1.4,1.2-1.4
		c0.1,0,0.1,0,0.2,0c1.4,0,1.6,2.1,4.1,2.1c1.2,0,2-0.5,2-1.3c0-0.9-0.7-1-1.9-1.3L46,23c-1.9-0.5-3.5-1.3-3.5-3.6
		C42.4,16.7,45.1,15.6,47.4,15.6"/>
	<path class="st1" d="M53.5,12.7c0-1,0.7-1.8,1.6-1.8c0.9,0,1.7,0.7,1.7,1.7v0.1v4.8l0,0c0.9-1.2,2.3-1.9,3.7-1.8
		c2.2-0.2,4.1,1.5,4.2,3.7c0,0.3,0,0.5,0,0.8v6.7c0,1-0.7,1.7-1.6,1.8c-0.9,0-1.7-0.7-1.7-1.7v-0.1v-6c0-1.4-0.7-2.4-2.1-2.4
		s-2.6,1.3-2.5,2.7v5.7c0,1-0.7,1.8-1.6,1.8c-0.9,0-1.7-0.7-1.7-1.7v-0.1L53.5,12.7z"/>
	<path class="st2" d="M71.5,26.1c2,0,2.8-1.8,2.8-4s-0.9-3.9-2.8-3.9s-2.8,1.7-2.8,3.9C68.7,24.2,69.5,26.1,71.5,26.1z M71.5,15.6
		c3.2-0.2,6,2.3,6.2,5.6c0,0.3,0,0.6,0,0.8c0,3.5-1.6,6.5-6.2,6.5s-6.2-3.1-6.2-6.5c-0.3-3.3,2.2-6.2,5.4-6.5
		C71,15.6,71.2,15.6,71.5,15.6z"/>
	<path class="st2" d="M84,18.3c-1.9,0-2.7,1.8-2.7,3.8c0,1.8,0.6,3.8,2.7,3.8s2.7-2.2,2.7-3.8C86.7,20.1,85.8,18.4,84,18.3z
		 M78.2,17.3c0-1.1,0.5-1.6,1.5-1.6c0.8-0.1,1.4,0.5,1.5,1.3c0,0.1,0,0.2,0,0.4v0.5h0.1c0.6-1.4,2-2.3,3.5-2.2
		c2.8,0,5.3,2.1,5.3,6.6c0,3.3-1.6,6.4-5.2,6.4c-1.3,0.1-2.6-0.6-3.3-1.8l0,0v4.6c0,1-0.7,1.7-1.6,1.8c-0.9,0-1.7-0.7-1.7-1.7v-0.1
		V17.3H78.2z"/>
	<path class="st2" d="M22.8,12.8c-0.1-1.2-1-2-2.2-1.9c-1,0.1-1.8,0.9-1.9,1.9H22.8z M15.9,25.9c-1.3,0.1-2.5-0.9-2.6-2.3l1.4-8.6
		c0.1-1.3,1.2-2.4,2.5-2.3c0.1-2,1.7-3.6,3.7-3.6c1.9,0.1,3.4,1.6,3.5,3.6c1.3-0.1,2.5,0.9,2.6,2.3l1.3,8.6C28.2,25,27,26,25.7,25.9
		H15.9z"/>
</g>
</svg>
