<svg xmlns="http://www.w3.org/2000/svg" width="97.614" height="30.7" viewBox="0 0 97.614 30.7"><defs><style>.a{fill:#4285f4;}.b{fill:#ea4335;}.c{fill:#fbbc05;}.d{fill:#34a853;}</style></defs><g transform="translate(-0.11)"><path class="a" d="M12.3,10.937v3.285h7.852a6.964,6.964,0,0,1-1.789,4.14,8.039,8.039,0,0,1-6.063,2.4,8.618,8.618,0,0,1-8.613-8.733A8.618,8.618,0,0,1,12.3,3.3a8.349,8.349,0,0,1,5.916,2.35l2.31-2.31A11.342,11.342,0,0,0,12.3,0,12.186,12.186,0,0,0,.11,12.018,12.186,12.186,0,0,0,12.3,24.036a11.015,11.015,0,0,0,8.386-3.365,10.87,10.87,0,0,0,2.844-7.678,10.555,10.555,0,0,0-.174-2.056Z" transform="translate(0)"/><path class="b" d="M26.955,6.19a7.645,7.645,0,0,0-7.785,7.758,7.785,7.785,0,0,0,15.57,0A7.645,7.645,0,0,0,26.955,6.19Zm0,12.459a4.487,4.487,0,0,1-4.38-4.7,4.391,4.391,0,1,1,8.76,0A4.487,4.487,0,0,1,26.955,18.649Z" transform="translate(6.392 2.076)"/><path class="a" d="M56.457,7.926h-.12A5.378,5.378,0,0,0,52.251,6.19,7.543,7.543,0,0,0,45,13.948a7.56,7.56,0,0,0,7.251,7.758,5.3,5.3,0,0,0,4.086-1.763h.12v1.082c0,2.964-1.589,4.554-4.14,4.554a4.3,4.3,0,0,1-3.913-2.764l-2.964,1.229a7.39,7.39,0,0,0,6.877,4.58c3.993,0,7.371-2.35,7.371-8.079V6.591H56.457ZM52.545,18.649c-2.35,0-4.14-2-4.14-4.7,0-2.737,1.789-4.7,4.14-4.7,2.324,0,4.14,2,4.14,4.727S54.868,18.649,52.545,18.649Z" transform="translate(15.054 2.076)"/><path class="c" d="M39.955,6.19a7.645,7.645,0,0,0-7.785,7.758,7.785,7.785,0,0,0,15.57,0A7.645,7.645,0,0,0,39.955,6.19Zm0,12.459a4.487,4.487,0,0,1-4.38-4.7,4.391,4.391,0,1,1,8.76,0A4.487,4.487,0,0,1,39.955,18.649Z" transform="translate(10.751 2.076)"/><path class="d" d="M58,.24h3.352V23.7H58Z" transform="translate(19.414 0.08)"/><path class="b" d="M70.192,18.649a3.949,3.949,0,0,1-3.766-2.35L76.8,12.012l-.347-.881c-.641-1.736-2.617-4.941-6.637-4.941-3.993,0-7.318,3.138-7.318,7.758a7.584,7.584,0,0,0,7.692,7.758,7.74,7.74,0,0,0,6.463-3.432l-2.644-1.763a4.442,4.442,0,0,1-3.819,2.137ZM69.951,9.1a3.067,3.067,0,0,1,2.938,1.709l-7.011,2.9C65.878,10.45,68.189,9.1,69.951,9.1Z" transform="translate(20.923 2.076)"/></g></svg>