<svg width="23.999999999999996" height="23.999999999999996" xmlns="http://www.w3.org/2000/svg">

 <g>
  <title>background</title>
  <rect fill="none" id="canvas_background" height="402" width="582" y="-1" x="-1"/>
 </g>
 <g>
  <title>Layer 1</title>
  <path stroke="null" fill="#999999" id="svg_3" d="m8.309601,7.779251c0,0 -4.399767,0.491769 -7.334802,0.820553c-0.264543,0.032316 -0.498455,0.210758 -0.586172,0.481934s0,0.553592 0.194926,0.732034c2.180391,2.007825 5.456547,5.014644 5.456547,5.014644c-0.002785,0 -0.899446,4.373938 -1.495364,7.292239c-0.050124,0.26415 0.044555,0.543757 0.272897,0.710958c0.22695,0.167202 0.51934,0.170012 0.749074,0.039342c2.567459,-1.472498 6.413079,-3.686866 6.413079,-3.686866s3.847012,2.214368 6.410294,3.688271c0.233912,0.129265 0.526301,0.126455 0.753251,-0.040747c0.228342,-0.167202 0.323021,-0.446808 0.271505,-0.709553c-0.595918,-2.919706 -1.491187,-7.293644 -1.491187,-7.293644s3.276156,-3.006819 5.456547,-5.010429c0.194926,-0.184062 0.281251,-0.466478 0.194926,-0.736249s-0.320236,-0.448213 -0.584779,-0.479124c-2.935035,-0.331593 -7.336194,-0.823363 -7.336194,-0.823363s-1.823954,-4.071851 -3.03946,-6.786419c-0.114171,-0.243075 -0.353652,-0.413086 -0.634903,-0.413086s-0.522124,0.171417 -0.630726,0.413086c-1.216898,2.714568 -3.03946,6.786419 -3.03946,6.786419z"/>
 </g>
</svg>